<?xml version="1.0" encoding="UTF-8"?>
<!DOCTYPE svg PUBLIC "-//W3C//DTD SVG 1.1//EN" "http://www.w3.org/Graphics/SVG/1.1/DTD/svg11.dtd">
<svg xmlns="http://www.w3.org/2000/svg" version="1.1" width="500px" height="500px" style="shape-rendering:geometricPrecision; text-rendering:geometricPrecision; image-rendering:optimizeQuality; fill-rule:evenodd; clip-rule:evenodd" xmlns:xlink="http://www.w3.org/1999/xlink">
<g><path style="opacity:0.983" fill="#000000" d="M 334.5,19.5 C 348.605,19.7284 362.272,22.2284 375.5,27C 377.478,30.9331 377.978,35.0998 377,39.5C 372.939,49.7845 366.772,58.6178 358.5,66C 345.833,75.3333 333.167,84.6667 320.5,94C 306.122,102.523 291.455,110.523 276.5,118C 287.596,114.727 298.929,112.061 310.5,110C 316.167,109.333 321.833,109.333 327.5,110C 330.3,111.309 332.967,112.809 335.5,114.5C 354.802,132.291 371.302,152.291 385,174.5C 387.943,182.662 391.276,190.662 395,198.5C 396.325,202.428 396.658,206.428 396,210.5C 394.2,212.317 392.034,213.484 389.5,214C 379.516,215.089 369.85,213.756 360.5,210C 335.107,200.425 313.774,185.259 296.5,164.5C 286.47,167.789 276.47,170.956 266.5,174C 275.811,193.173 278.977,213.339 276,234.5C 272.902,244.984 271.235,255.65 271,266.5C 272.667,269.167 274.333,271.833 276,274.5C 299.27,292.947 320.27,313.614 339,336.5C 347.093,349.014 354.426,362.014 361,375.5C 365.277,385.164 368.444,395.164 370.5,405.5C 390.632,405.46 404.465,414.794 412,433.5C 419.061,459.522 409.227,475.022 382.5,480C 377.215,481.026 371.882,481.693 366.5,482C 361.958,487.436 356.292,491.102 349.5,493C 277.014,494.155 204.514,494.989 132,495.5C 123.908,495.21 116.074,493.71 108.5,491C 100.581,484.54 98.4147,476.373 102,466.5C 106.406,457.201 113.573,451.035 123.5,448C 133.361,445.035 143.361,442.701 153.5,441C 145.794,423.91 143.461,406.076 146.5,387.5C 146.167,386.833 145.833,386.167 145.5,385.5C 129.67,390.612 120.503,384.946 118,368.5C 116.796,355.367 115.963,342.201 115.5,329C 116.901,311.726 118.734,294.559 121,277.5C 106.148,267.983 92.8144,256.65 81,243.5C 69.9367,226.803 67.9367,209.136 75,190.5C 79.3754,185.59 84.8754,182.756 91.5,182C 94.3405,180.414 97.0072,178.58 99.5,176.5C 107.14,165.693 114.974,155.026 123,144.5C 137.765,128.869 155.932,120.369 177.5,119C 189.496,118.263 201.496,117.597 213.5,117C 225.373,104.129 236.873,90.9627 248,77.5C 266.714,59.109 286.881,42.609 308.5,28C 316.734,23.4211 325.401,20.5878 334.5,19.5 Z"/></g>
</svg>
