<?xml version="1.0" encoding="UTF-8"?>
<!DOCTYPE svg PUBLIC "-//W3C//DTD SVG 1.1//EN" "http://www.w3.org/Graphics/SVG/1.1/DTD/svg11.dtd">
<svg xmlns="http://www.w3.org/2000/svg" version="1.1" width="500px" height="500px" style="shape-rendering:geometricPrecision; text-rendering:geometricPrecision; image-rendering:optimizeQuality; fill-rule:evenodd; clip-rule:evenodd" xmlns:xlink="http://www.w3.org/1999/xlink">
<g><path style="opacity:0.981" fill="#000000" d="M 113.5,7.5 C 132.193,6.08583 150.193,8.91916 167.5,16C 186.063,28.1182 203.73,41.4515 220.5,56C 236.668,72.162 252.502,88.662 268,105.5C 277.921,101.382 288.254,99.049 299,98.5C 309.881,100.41 320.714,102.576 331.5,105C 346.328,111.155 358.161,120.989 367,134.5C 373.173,144.175 378.84,154.175 384,164.5C 386.333,167.5 388.667,170.5 391,173.5C 396.507,176.92 401.841,180.586 407,184.5C 411.122,192.576 411.622,200.909 408.5,209.5C 404.527,226.969 395.194,240.802 380.5,251C 372.439,256.699 363.772,261.365 354.5,265C 361.529,275.076 366.029,286.243 368,298.5C 369.677,315.937 372.01,333.271 375,350.5C 376.528,353.417 377.861,356.417 379,359.5C 383.751,367.337 388.751,375.004 394,382.5C 400.479,403.336 392.979,412.836 371.5,411C 367.759,409.262 364.592,406.762 362,403.5C 357.747,396.663 353.747,389.663 350,382.5C 350.64,402.223 347.806,421.39 341.5,440C 355.015,440.236 368.015,442.903 380.5,448C 394.915,455.236 399.081,466.403 393,481.5C 387.331,488.09 380.164,492.257 371.5,494C 293.488,494.944 215.488,494.611 137.5,493C 133.706,492.544 131.039,490.544 129.5,487C 114.796,487.993 101.463,484.326 89.5,476C 82.3772,468.881 79.0439,460.215 79.5,450C 80.8745,431.958 90.5412,421.624 108.5,419C 113.518,417.73 118.518,417.563 123.5,418.5C 123.937,409.055 125.104,399.721 127,390.5C 130.075,382.686 133.409,375.02 137,367.5C 157.188,336.828 180.021,308.162 205.5,281.5C 212.79,271.752 217.79,260.919 220.5,249C 217.205,236.114 213.705,223.281 210,210.5C 207.934,192.27 211.767,175.437 221.5,160C 174.316,149.606 129.316,133.273 86.5,111C 72.0083,103.337 58.8417,93.8374 47,82.5C 38.5447,73.5637 37.7113,64.0637 44.5,54C 48.682,50.91 53.3487,48.91 58.5,48C 77.9854,46.3027 96.9854,48.6361 115.5,55C 134.225,61.0308 152.225,68.6975 169.5,78C 193.777,91.7888 217.11,106.955 239.5,123.5C 240.451,124.326 241.451,124.492 242.5,124C 243.257,122.488 244.257,121.154 245.5,120C 218.331,103.25 191.331,86.2501 164.5,69C 146.5,59 128.5,49 110.5,39C 101.469,32.9059 98.636,24.7393 102,14.5C 105.214,10.9838 109.047,8.65048 113.5,7.5 Z"/></g>
<g><path style="opacity:0.004" fill="#000000" d="M 125.5,491.5 C 125.897,490.475 126.563,490.308 127.5,491C 126.906,491.464 126.239,491.631 125.5,491.5 Z"/></g>
</svg>
